<svg width="435" height="381" viewBox="0 0 435 381" fill="none" xmlns="http://www.w3.org/2000/svg">
<path d="M196.5 83L217 45.5M196.5 83L153.397 53M196.5 83V375M217 45.5L154.5 6M217 45.5L239.5 83M217 45.5L283 6M154.5 6L134 39.5L153.397 53M154.5 6H283M239.5 83V375M239.5 83L282.603 53M283 6L302 39.5L282.603 53M239.5 375H347.5V176.5L376.5 208L427 152.5L347.5 53H282.603M239.5 375H196.5M153.397 53H86L8 152.5L58.5 208L86 176.5V375H196.5M274.5 145.5V193.5L296 205.5L322.5 193.5V145.5H274.5Z" stroke="#606060" stroke-opacity="0.5" stroke-width="12"/>
<circle cx="217.5" cy="106.5" r="5.5" fill="#606060" fill-opacity="0.5"/>
<circle cx="217.5" cy="173.5" r="5.5" fill="#606060" fill-opacity="0.5"/>
<circle cx="217.5" cy="238.5" r="5.5" fill="#606060" fill-opacity="0.5"/>
<circle cx="217.5" cy="305.5" r="5.5" fill="#606060" fill-opacity="0.5"/>
<path d="M142.397 129L136.611 162.641L131 192.973H156.552C169.641 179.884 162.741 169.32 156.552 165.215C152.288 157.42 151.773 158.78 156.552 151.06" stroke="#000080" stroke-opacity="0.7" stroke-width="11.0298"/>
</svg>
