<svg width="163" height="136" viewBox="0 0 163 136" fill="none" xmlns="http://www.w3.org/2000/svg">
<path d="M73.433 29.4301L81.2016 16.0713M73.433 29.4301L57.0988 18.7431M73.433 29.4301V133.451M81.2016 16.0713L57.5169 2M81.2016 16.0713L89.7281 29.4301M81.2016 16.0713L106.213 2M57.5169 2L49.7483 13.9339L57.0988 18.7431M57.5169 2H106.213M89.7281 29.4301V133.451M89.7281 29.4301L106.062 18.7431M106.213 2L113.413 13.9339L106.062 18.7431M89.7281 133.451H130.655V62.7381L141.645 73.9595L160.782 54.1885L130.655 18.7431H106.062M89.7281 133.451H73.433M57.0988 18.7431H31.5585L2 54.1885L21.1372 73.9595L31.5585 62.7381V133.451H73.433M102.992 51.6948V68.7941L111.139 73.0689L121.181 68.7941V51.6948H102.992Z" stroke="#606060" stroke-width="4" stroke-linejoin="bevel"/>
<ellipse cx="81.3911" cy="37.8016" rx="2.08426" ry="1.95929" fill="#606060" fill-opacity="0.5"/>
<ellipse cx="81.3911" cy="61.6694" rx="2.08426" ry="1.95929" fill="#606060" fill-opacity="0.5"/>
<ellipse cx="81.3911" cy="84.8247" rx="2.08426" ry="1.9593" fill="#606060" fill-opacity="0.5"/>
<ellipse cx="81.3911" cy="108.692" rx="2.08426" ry="1.9593" fill="#606060" fill-opacity="0.5"/>
<path d="M52.9306 45.8169L50.7376 57.801L48.6115 68.6063H58.2947C63.2547 63.9436 60 60.5 58.2947 58.7178C56.6785 55.9412 57.5 56.5 58.2947 53.6753" stroke="#000080" stroke-width="5.74209"/>
</svg>
