<svg width="119" height="131" viewBox="0 0 119 131" fill="none" xmlns="http://www.w3.org/2000/svg">
<path d="M52.6006 123.621L28.1006 126.121C22.934 125.288 15.0006 122.121 24.6006 116.121M24.6006 116.121L35.1006 114.621M24.6006 116.121L18.6006 85.6215C16.934 82.4548 9.76729 78.2881 7.10062 72.6215C4.43396 66.9548 -0.0993774 53.4215 3.10062 44.6215C4.93397 42.6215 9.60067 40.2215 13.6006 46.6215M13.6006 46.6215L15.1006 54.1215C16.1007 55.9548 17.8007 61.3214 24.6006 62.1214C30 62.7567 32 67 33.6006 72.6215M13.6006 46.6215L9.60065 19.1215C9.26732 17.6215 9.60067 14.0215 13.6006 11.6215C17.6006 9.22146 19.934 14.2881 20.6006 17.1215M20.6006 17.1215L24.6006 44.6215M20.6006 17.1215C20.2673 13.6215 21.0006 6.62145 26.6006 6.62145C32.2006 6.62145 32 8.5 34 11.5M34 11.5L38.6006 42.6214M34 11.5C35 8.00001 40.7041 7.2249 43.1006 9.62145C43.6006 10.1214 44.7006 11.7214 45.1006 14.1214C45.3529 15.6348 46.1485 19.7458 46.9109 23.6215M46.9109 23.6215C47.3575 25.8922 48.6921 32.5821 49 34.1214L46.9109 23.6215ZM46.9109 23.6215C48.4741 20.1215 55 14.5 58.1006 23.6215L59 28M59 28C58 28.5 56.2006 28.4214 52.6006 35.6214C50.1006 42.1214 46.2006 56.5214 50.6006 62.1214C51.8306 64.1214 53.5525 70.2214 50.6006 78.6214L43.1006 102.621M59 28C63.5 26.5 67.5 28.5 67 34.1214M43.1006 102.621L67.6006 111.621M43.1006 102.621C39.7673 103.288 34.6006 106.021 40.6006 111.621C46.6006 117.221 73.7673 125.288 86.6006 128.621C88.934 128.121 92.9006 125.721 90.1006 120.121L87.9756 119.121M81.6006 116.121L85.8506 118.121L87.9756 119.121M87.9756 119.121C97.5173 92.2881 116.601 38.3214 116.601 37.1214C116.601 35.6214 117.601 26.6215 107.101 29.6215M107.101 29.6215L101.101 48.6214M107.101 29.6215C110.184 22.7881 113.301 10.1214 101.101 14.1214M101.101 14.1214C100.5 8.50005 96.2756 0.821446 87.9756 9.62145M101.101 14.1214L95 29.6215L90.1006 42.6214M87.9756 9.62145L78.1006 39.1214M87.9756 9.62145C85.8506 1.00001 81.5 0.5 77 6.00001L67 34.1214M62.1006 48.6214L67 34.1214M76.6006 114.621L74.1006 113.121M35.1006 78.6214L36.5 84M64.1006 82.6214C62.7673 85.1214 60.1006 90.5214 60.1006 92.1214C60.1006 94.1214 80.3506 103.121 83.1006 101.121C85.8506 99.1214 89.3506 94.1214 87.9756 92.1214C86.6006 90.1214 71.1006 82.6214 67.6006 82.6214" stroke="#606060" stroke-width="3" stroke-linecap="round" stroke-linejoin="round"/>
<path d="M85.6444 52.2329L80.122 63.0924L75 72.8412L84.2804 75.6052C90.365 72.5523 88.2286 68.3229 87.1029 66.1281C86.3465 63.0057 86.9744 63.7758 88.5423 61.2955" stroke="#000080" stroke-width="5.74209"/>
</svg>
